<svg width="177" height="43" viewBox="0 0 177 43" fill="none" xmlns="http://www.w3.org/2000/svg">
<path d="M51.2537 19.0381L48.5548 15.6415L49.5949 15.0095L52.7414 19.0381H51.2537ZM46.1982 19.0381V12.0605H47.4621V19.0381H46.1982ZM47.0803 16.0891V15.0095H49.3842V16.0891H47.0803ZM49.7002 15.6941L48.5285 15.5361L51.201 12.0605H52.5571L49.7002 15.6941ZM57.766 19.1171C57.1867 19.1171 56.6557 18.9854 56.173 18.7221C55.699 18.45 55.3172 18.0507 55.0276 17.5241C54.7467 16.9975 54.6063 16.3392 54.6063 15.5493C54.6063 14.7594 54.7423 14.1011 55.0144 13.5745C55.2953 13.0479 55.6727 12.6529 56.1466 12.3896C56.6294 12.1263 57.1691 11.9947 57.766 11.9947C58.4506 11.9947 59.0562 12.1439 59.5828 12.4423C60.1094 12.7407 60.5263 13.1576 60.8335 13.693C61.1407 14.2196 61.2942 14.8384 61.2942 15.5493C61.2942 16.2602 61.1407 16.8834 60.8335 17.4188C60.5263 17.9541 60.1094 18.371 59.5828 18.6695C59.0562 18.9679 58.4506 19.1171 57.766 19.1171ZM54.0665 21.5921V12.0605H55.2777V13.9431L55.1987 15.5625L55.3304 17.1818V21.5921H54.0665ZM57.6606 18.0112C58.1083 18.0112 58.5076 17.9103 58.8587 17.7084C59.2185 17.5065 59.4994 17.2213 59.7013 16.8527C59.9119 16.4753 60.0172 16.0408 60.0172 15.5493C60.0172 15.049 59.9119 14.619 59.7013 14.2591C59.4994 13.8905 59.2185 13.6052 58.8587 13.4034C58.5076 13.2015 58.1083 13.1006 57.6606 13.1006C57.2218 13.1006 56.8225 13.2015 56.4626 13.4034C56.1115 13.6052 55.8307 13.8905 55.62 14.2591C55.4182 14.619 55.3172 15.049 55.3172 15.5493C55.3172 16.0408 55.4182 16.4753 55.62 16.8527C55.8307 17.2213 56.1115 17.5065 56.4626 17.7084C56.8225 17.9103 57.2218 18.0112 57.6606 18.0112ZM63.2931 21.6711C62.9596 21.6711 62.6348 21.6141 62.3189 21.5C62.0029 21.3947 61.7308 21.2367 61.5026 21.026L62.0424 20.0781C62.2179 20.2449 62.411 20.3722 62.6217 20.4599C62.8323 20.5477 63.0561 20.5916 63.2931 20.5916C63.6003 20.5916 63.8548 20.5126 64.0567 20.3546C64.2586 20.1966 64.4473 19.9158 64.6228 19.512L65.0572 18.551L65.1889 18.393L67.9273 12.0605H69.1648L65.7813 19.7358C65.5795 20.2273 65.3513 20.6135 65.0967 20.8944C64.851 21.1752 64.5789 21.3727 64.2805 21.4868C63.9821 21.6097 63.653 21.6711 63.2931 21.6711ZM64.9519 19.2619L61.7659 12.0605H63.0825L65.7945 18.2745L64.9519 19.2619ZM71.8411 19.0381V12.8373L72.1571 13.1664H69.2871V12.0605H75.6591V13.1664H72.8022L73.105 12.8373V19.0381H71.8411ZM79.6314 19.1171C78.9292 19.1171 78.3061 18.9635 77.7619 18.6563C77.2177 18.3491 76.7877 17.9278 76.4717 17.3924C76.1557 16.8483 75.9978 16.2339 75.9978 15.5493C75.9978 14.8559 76.1557 14.2416 76.4717 13.7062C76.7877 13.1708 77.2177 12.7539 77.7619 12.4555C78.3061 12.1483 78.9292 11.9947 79.6314 11.9947C80.3247 11.9947 80.9435 12.1483 81.4877 12.4555C82.0406 12.7539 82.4707 13.1708 82.7779 13.7062C83.0938 14.2328 83.2518 14.8472 83.2518 15.5493C83.2518 16.2427 83.0938 16.857 82.7779 17.3924C82.4707 17.9278 82.0406 18.3491 81.4877 18.6563C80.9435 18.9635 80.3247 19.1171 79.6314 19.1171ZM79.6314 18.0112C80.079 18.0112 80.4783 17.9103 80.8294 17.7084C81.1893 17.5065 81.4701 17.2213 81.672 16.8527C81.8738 16.4753 81.9748 16.0408 81.9748 15.5493C81.9748 15.049 81.8738 14.619 81.672 14.2591C81.4701 13.8905 81.1893 13.6052 80.8294 13.4034C80.4783 13.2015 80.079 13.1006 79.6314 13.1006C79.1838 13.1006 78.7844 13.2015 78.4333 13.4034C78.0823 13.6052 77.8014 13.8905 77.5908 14.2591C77.3801 14.619 77.2748 15.049 77.2748 15.5493C77.2748 16.0408 77.3801 16.4753 77.5908 16.8527C77.8014 17.2213 78.0823 17.5065 78.4333 17.7084C78.7844 17.9103 79.1838 18.0112 79.6314 18.0112ZM85.0768 19.0381V12.0605H86.3407V17.1423L90.6194 12.0605H91.7648V19.0381H90.5009V13.9563L86.2354 19.0381H85.0768ZM88.3418 11.1521C87.7011 11.1521 87.1964 10.9985 86.8278 10.6913C86.468 10.3754 86.2837 9.92335 86.2749 9.3353H87.1306C87.1394 9.66882 87.2491 9.93213 87.4598 10.1252C87.6792 10.3183 87.9688 10.4149 88.3287 10.4149C88.6885 10.4149 88.9781 10.3183 89.1976 10.1252C89.417 9.93213 89.5311 9.66882 89.5399 9.3353H90.4219C90.4132 9.92335 90.2245 10.3754 89.8558 10.6913C89.4872 10.9985 88.9825 11.1521 88.3418 11.1521Z" fill="white"/>
<path d="M46.0961 36.5601V24.9699H49.6076L53.9809 32.8977H52.5806L57.2554 24.9699H60.4007L60.4438 36.5601H57.4062V28.4168L57.9233 28.7614L53.9378 35.4398H52.5159L48.5089 28.5245L49.1337 28.3737V36.5601H46.0961ZM70.5999 36.5601V34.298L70.3844 33.8025V29.7524C70.3844 29.0343 70.1618 28.4742 69.7166 28.0721C69.2857 27.6699 68.6179 27.4689 67.7131 27.4689C67.0955 27.4689 66.4851 27.5694 65.8819 27.7705C65.2931 27.9572 64.7904 28.2157 64.3739 28.546L63.1675 26.1978C63.7994 25.7526 64.5606 25.4079 65.4511 25.1637C66.3415 24.9196 67.2463 24.7975 68.1655 24.7975C69.932 24.7975 71.3036 25.214 72.2802 26.047C73.2568 26.88 73.7452 28.1798 73.7452 29.9463V36.5601H70.5999ZM67.0668 36.7324C66.162 36.7324 65.3864 36.5816 64.7401 36.28C64.0938 35.964 63.5983 35.5404 63.2537 35.009C62.909 34.4776 62.7366 33.8815 62.7366 33.2209C62.7366 32.5315 62.9018 31.9283 63.2321 31.4113C63.5768 30.8942 64.1154 30.4921 64.8479 30.2048C65.5803 29.9032 66.5354 29.7524 67.7131 29.7524H70.7938V31.7129H68.0793C67.2894 31.7129 66.7436 31.8421 66.442 32.1006C66.1548 32.3592 66.0112 32.6823 66.0112 33.0701C66.0112 33.5009 66.1763 33.8456 66.5067 34.1041C66.8514 34.3483 67.3181 34.4704 67.907 34.4704C68.4671 34.4704 68.9698 34.3411 69.415 34.0826C69.8602 33.8097 70.1834 33.4148 70.3844 32.8977L70.9015 34.4488C70.6573 35.1957 70.2121 35.763 69.5658 36.1507C68.9195 36.5385 68.0865 36.7324 67.0668 36.7324ZM83.4938 36.7324C82.5171 36.7324 81.6626 36.517 80.9301 36.0861C80.1977 35.6552 79.6232 35.0018 79.2067 34.1257C78.8045 33.2352 78.6035 32.115 78.6035 30.765C78.6035 29.4006 78.7974 28.2803 79.1851 27.4042C79.5729 26.5281 80.133 25.8747 80.8655 25.4438C81.598 25.0129 82.4741 24.7975 83.4938 24.7975C84.5853 24.7975 85.5619 25.0489 86.4236 25.5515C87.2997 26.0398 87.9891 26.7292 88.4918 27.6197C89.0088 28.5101 89.2673 29.5585 89.2673 30.765C89.2673 31.9857 89.0088 33.0413 88.4918 33.9318C87.9891 34.8222 87.2997 35.5116 86.4236 35.9999C85.5619 36.4882 84.5853 36.7324 83.4938 36.7324ZM76.643 40.7394V24.9699H79.853V27.3396L79.7883 30.7865L80.0038 34.2119V40.7394H76.643ZM82.9121 33.9749C83.4722 33.9749 83.9677 33.8456 84.3986 33.5871C84.8438 33.3286 85.1957 32.9624 85.4542 32.4884C85.7271 32.0001 85.8635 31.4256 85.8635 30.765C85.8635 30.0899 85.7271 29.5155 85.4542 29.0415C85.1957 28.5676 84.8438 28.2013 84.3986 27.9428C83.9677 27.6843 83.4722 27.555 82.9121 27.555C82.352 27.555 81.8493 27.6843 81.4041 27.9428C80.9589 28.2013 80.607 28.5676 80.3485 29.0415C80.0899 29.5155 79.9607 30.0899 79.9607 30.765C79.9607 31.4256 80.0899 32.0001 80.3485 32.4884C80.607 32.9624 80.9589 33.3286 81.4041 33.5871C81.8493 33.8456 82.352 33.9749 82.9121 33.9749ZM99.8307 36.5601L95.9529 31.0666L98.6889 29.4508L103.795 36.5601H99.8307ZM91.6227 36.5601V24.9699H94.9835V36.5601H91.6227ZM93.9925 32.1653V29.4724H98.0426V32.1653H93.9925ZM99.012 31.1527L95.8667 30.808L99.9384 24.9699H103.515L99.012 31.1527ZM110.753 36.7324C109.432 36.7324 108.268 36.4739 107.263 35.9569C106.272 35.4398 105.504 34.7361 104.958 33.8456C104.412 32.9408 104.139 31.9139 104.139 30.765C104.139 29.6016 104.405 28.5747 104.936 27.6843C105.482 26.7795 106.222 26.0757 107.155 25.5731C108.089 25.056 109.144 24.7975 110.322 24.7975C111.457 24.7975 112.476 25.0417 113.381 25.53C114.3 26.0039 115.026 26.6933 115.557 27.5981C116.089 28.4886 116.354 29.5585 116.354 30.808C116.354 30.9373 116.347 31.0881 116.333 31.2605C116.318 31.4184 116.304 31.5692 116.29 31.7129H106.875V29.7524H114.523L113.23 30.3341C113.23 29.7309 113.108 29.2067 112.864 28.7614C112.62 28.3162 112.283 27.9715 111.852 27.7274C111.421 27.4689 110.918 27.3396 110.344 27.3396C109.769 27.3396 109.259 27.4689 108.814 27.7274C108.383 27.9715 108.046 28.3234 107.802 28.783C107.557 29.2282 107.435 29.7596 107.435 30.3772V30.8942C107.435 31.5261 107.572 32.0863 107.845 32.5746C108.132 33.0485 108.527 33.4148 109.03 33.6733C109.547 33.9174 110.15 34.0395 110.839 34.0395C111.457 34.0395 111.995 33.9462 112.455 33.7595C112.929 33.5727 113.36 33.2927 113.748 32.9193L115.536 34.8582C115.004 35.4614 114.336 35.9281 113.532 36.2585C112.728 36.5744 111.801 36.7324 110.753 36.7324ZM121.008 36.5601V26.9518L121.762 27.7274H117.087V24.9699H128.268V27.7274H123.593L124.347 26.9518V36.5601H121.008ZM130.06 36.5601V24.9699H133.399V31.8637L139.043 24.9699H142.124V36.5601H138.785V29.6663L133.162 36.5601H130.06ZM145.354 36.5601V24.9699H148.694V29.4939H153.735V24.9699H157.095V36.5601H153.735V32.2299H148.694V36.5601H145.354ZM160.312 36.5601V24.9699H169.598V27.7274H162.898L163.652 26.9949V36.5601H160.312Z" fill="#BD0231"/>
<path d="M13.8594 31.2536C10.9642 27.8431 11.216 21.6537 2.15285 20.5169C-1.24582 19.8853 2.90811 13.5697 14.1111 19.6327C14.237 19.759 13.3559 7.12768 13.9853 2.70671C14.237 0.433064 17.3839 0.559393 17.7616 2.32778C18.5168 5.23299 18.5168 19.1275 18.5168 19.1275C18.5168 19.1275 18.0133 13.8223 19.2721 11.675C19.6497 11.0434 21.7896 10.9171 22.2931 11.675C23.6778 13.5697 23.1743 19.1275 23.1743 19.1275C23.1743 19.1275 23.0484 13.9486 24.0554 11.675C24.433 10.9171 26.9506 10.9171 27.2023 11.9276C28.0835 15.2118 27.9576 19.2538 27.9576 19.2538C27.9576 19.2538 28.0835 7.254 29.7199 4.09616C30.0975 3.33828 31.9857 3.33829 32.4892 4.22248C33.3703 5.86456 32.9927 12.4328 33.1186 18.4959C33.1186 25.0642 30.4751 31.2536 30.4751 31.2536C30.4751 31.2536 17.8874 32.0114 13.8594 31.2536Z" stroke="white" stroke-width="1.19684" stroke-miterlimit="10"/>
<path d="M31.7338 38.3269H12.2229C11.3418 38.3269 10.7124 37.569 10.7124 36.8111V32.2638C10.7124 31.3796 11.4677 30.748 12.2229 30.748H31.7338C32.615 30.748 33.2444 31.5059 33.2444 32.2638V36.8111C33.3703 37.569 32.615 38.3269 31.7338 38.3269Z" fill="#BD0231"/>
</svg>
